<svg version="1.1" id="Layer_1" xmlns="http://www.w3.org/2000/svg" xmlns:xlink="http://www.w3.org/1999/xlink" x="0px" y="0px"
	 width="100%" viewBox="0 0 161 165" enable-background="new 0 0 161 165" xml:space="preserve">
<path fill="#FFFFFF" opacity="1.000000" stroke="none" 
	d="
M0.999998,139.000000 
	C1.000000,93.031029 1.000000,47.062065 1.000000,1.046548 
	C54.599396,1.046548 108.198845,1.046548 161.899139,1.046548 
	C161.899139,55.895496 161.899139,110.791237 161.899139,165.843491 
	C108.333679,165.843491 54.666893,165.843491 1.000000,165.843491 
	C1.000000,158.260437 1.000000,150.598907 1.233334,142.486389 
	C1.466668,142.035385 1.920496,142.149719 1.948729,142.503204 
	C4.677577,144.511353 7.378193,146.166016 10.398426,147.993042 
	C13.792296,149.461273 16.866549,150.757111 20.107599,152.382767 
	C23.194139,153.752457 26.113882,154.792343 29.420761,155.911972 
	C33.191723,156.934158 36.575542,157.876572 40.352966,158.903717 
	C44.109970,159.681549 47.473381,160.374680 51.072151,161.422302 
	C55.159447,162.114456 59.011375,162.452118 63.289124,162.878662 
	C67.143929,163.259552 70.572914,163.551544 74.462074,163.912308 
	C78.944756,163.931549 82.967278,163.882019 87.432495,163.903244 
	C91.923210,163.594925 95.971222,163.215836 100.439377,162.908478 
	C105.605232,162.017960 110.350937,161.055710 115.505638,160.054688 
	C120.624588,158.700699 125.334541,157.385468 130.439636,156.039459 
	C139.734055,152.230301 148.708984,148.612854 157.452972,144.503998 
	C158.799820,143.871094 160.089188,140.682419 159.649582,139.194382 
	C158.769424,136.215103 156.674515,133.594711 155.054138,130.476715 
	C153.711853,128.068924 152.396545,126.010544 151.041977,123.595139 
	C149.700409,121.141518 148.398087,119.044937 147.049011,116.604584 
	C146.033829,114.810699 145.065399,113.360580 144.054749,111.562103 
	C143.287201,109.821526 142.561874,108.429306 141.829987,106.710098 
	C140.912872,105.226181 140.002335,104.069244 139.053345,102.580864 
	C138.284180,101.198593 137.553436,100.147774 136.860138,98.798828 
	C136.570419,98.293976 136.243271,98.087257 135.916824,97.514114 
	C134.306900,96.394867 132.696304,95.642029 130.870544,94.558868 
	C129.082947,94.206848 127.510498,94.185150 125.507599,94.092476 
	C116.383621,93.737190 107.690094,93.452888 98.574280,93.095963 
	C93.365700,93.679413 88.499489,93.987633 83.810028,95.065109 
	C74.490059,97.206520 65.267426,99.771507 55.623337,102.088455 
	C48.814312,104.969582 42.386528,107.923729 35.589981,110.934486 
	C31.009455,113.322678 26.797689,115.654266 22.266945,117.620514 
	C23.334005,115.853111 24.720049,114.451050 26.450977,113.024521 
	C28.546061,111.707314 30.296255,110.414589 32.399593,109.069077 
	C34.856586,107.714119 36.960430,106.411949 39.397568,105.067780 
	C40.841503,104.382492 41.952148,103.739204 43.393475,103.054893 
	C44.841187,102.381599 45.958214,101.749321 47.424862,101.070038 
	C49.486332,100.307266 51.198181,99.591499 53.252617,98.802887 
	C54.832325,98.074089 56.069443,97.418129 57.607819,96.737099 
	C58.927948,96.139595 59.946823,95.567169 61.231331,94.952820 
	C61.662704,94.842567 61.828445,94.774223 62.344055,94.745895 
	C63.792389,94.393364 64.890854,94.000809 66.351227,93.556595 
	C76.145676,91.251549 85.578224,88.998169 95.424385,86.804199 
	C97.220108,86.759781 98.602211,86.655945 100.261742,86.647415 
	C101.030769,86.503311 101.522385,86.263893 102.264717,86.004364 
	C102.677101,85.939728 102.838768,85.895195 103.301422,85.907272 
	C104.008987,85.922447 104.415558,85.880997 105.257767,85.885422 
	C107.155754,85.907761 108.618095,85.884224 110.507271,85.890564 
	C112.643486,85.893906 114.352875,85.867386 116.476158,85.885834 
	C118.274765,85.894440 119.659470,85.858078 121.439133,85.881866 
	C122.895088,85.907593 123.956100,85.873184 125.403419,85.901917 
	C126.827179,85.838928 127.864632,85.712791 129.458511,85.519005 
	C127.435768,82.296333 125.735573,79.587547 124.016312,76.521790 
	C122.790627,74.046738 121.639931,71.894333 120.366211,69.817398 
	C117.317993,64.846992 114.211884,59.912098 111.061066,54.608303 
	C109.607727,51.832748 108.222473,49.411762 106.790428,46.646767 
	C105.107918,43.532333 103.472206,40.761909 101.801582,37.656540 
	C100.549919,35.534344 99.333176,33.747097 98.058792,31.611851 
	C96.945351,29.507927 95.889549,27.752003 94.799820,25.652393 
	C93.215302,22.858828 91.664696,20.408949 90.058449,17.619240 
	C89.040176,15.839505 88.077545,14.399603 87.056152,12.590262 
	C85.311287,10.479418 83.924362,7.883429 81.879265,7.167491 
	C77.032990,5.470932 75.429283,9.273394 74.025009,13.298706 
	C72.977829,15.067290 72.072578,16.531145 71.013306,18.313366 
	C69.532776,21.075556 68.206261,23.519379 66.570465,26.097042 
	C65.229675,28.152187 64.198158,30.073494 63.013813,32.308769 
	C61.867428,34.401993 60.873863,36.181244 59.574535,38.121799 
	C57.470905,41.511826 55.673042,44.740543 53.572742,48.130920 
	C52.138004,50.516258 51.005699,52.739937 49.571259,55.132477 
	C44.834843,63.158157 40.400558,71.014977 35.661709,79.057083 
	C32.534508,84.477203 29.711874,89.712044 26.586676,95.115677 
	C24.484941,98.507057 22.685774,101.729652 20.577309,105.121368 
	C19.069977,110.223518 13.154214,113.637100 15.456736,119.734863 
	C16.770401,119.842232 17.928928,119.936920 19.055693,120.244583 
	C19.023928,120.457550 18.956202,120.882835 18.569038,120.932899 
	C15.223577,122.397232 11.428944,123.101044 9.491108,125.382202 
	C6.064959,129.415359 3.768988,134.408585 0.999998,139.000000 
z"/>
<path fill="#047133" opacity="1.000000" stroke="none" 
	d="
M1.920497,142.149719 
	C1.920496,142.149719 1.466668,142.035385 1.233334,142.017700 
	C1.000000,141.250000 1.000000,140.500000 0.999998,139.375000 
	C3.768988,134.408585 6.064959,129.415359 9.491108,125.382202 
	C11.428944,123.101044 15.223577,122.397232 18.584732,121.308838 
	C20.026834,122.771561 21.066082,123.908409 21.936325,125.338982 
	C19.887693,127.201729 18.010347,128.773499 16.127996,130.339233 
	C11.393365,134.277496 6.656480,138.213074 1.920497,142.149719 
z"/>
<path fill="#4C9F34" opacity="1.000000" stroke="none" 
	d="
M135.916138,97.880531 
	C136.243271,98.087257 136.570419,98.293976 136.537476,98.946457 
	C126.787361,103.266472 117.397324,107.140747 107.655289,111.049255 
	C104.525452,112.755554 101.747627,114.427605 98.681107,116.091919 
	C97.940529,116.395546 97.488640,116.706909 97.019867,117.006699 
	C97.002983,116.995125 97.008194,117.035698 96.774155,117.121445 
	C96.249199,117.396652 96.049057,117.656151 95.650536,118.016411 
	C94.909416,118.369728 94.457458,118.692314 93.684723,119.134842 
	C89.562622,122.125397 85.761299,124.996017 81.620804,127.937653 
	C76.855644,132.006531 72.429657,136.004379 67.702751,140.145844 
	C61.880154,147.215591 56.358471,154.141693 50.836792,161.067810 
	C47.473381,160.374680 44.109970,159.681549 40.504223,158.608276 
	C43.492180,154.147095 46.722477,150.066055 50.261856,145.827133 
	C53.665379,142.634079 56.808193,139.645981 59.830944,136.541031 
	C61.077404,135.260681 62.065929,133.729248 63.502388,132.192596 
	C68.291443,128.483734 72.749878,124.894272 77.401787,121.277328 
	C77.595261,121.249832 77.958481,121.105522 78.270386,121.074615 
	C79.075127,120.703438 79.567970,120.363174 80.404892,119.969360 
	C86.199402,116.625648 91.649849,113.335487 97.331345,110.021255 
	C97.562386,109.997185 98.017059,109.901703 98.307175,109.906937 
	C99.051697,109.602127 99.506104,109.292068 100.320892,108.935486 
	C111.860222,103.407845 123.460304,99.274696 135.916138,97.880531 
z"/>
<path fill="#92C9E1" opacity="1.000000" stroke="none" 
	d="
M116.062263,85.840866 
	C114.352875,85.867386 112.643486,85.893906 110.482544,85.489471 
	C109.176659,73.424828 100.150002,62.248608 89.141449,59.194458 
	C76.904289,55.799450 63.585163,60.572582 56.652782,70.528435 
	C50.474937,79.400673 49.884502,88.863174 52.910027,98.875732 
	C51.198181,99.591499 49.486332,100.307266 47.396217,100.655815 
	C42.118526,83.795929 45.645504,69.699844 59.549187,59.098740 
	C70.852745,50.480145 83.761757,49.306881 96.177643,55.481205 
	C108.197037,61.458359 116.073303,71.377899 116.062263,85.840866 
z"/>
<path fill="#4C9F34" opacity="1.000000" stroke="none" 
	d="
M74.001907,163.843536 
	C70.572914,163.551544 67.143929,163.259552 63.356327,162.538834 
	C65.646141,158.401031 68.294571,154.691940 71.223663,150.798981 
	C76.013054,145.746002 80.521767,140.876907 85.332581,135.855423 
	C89.431114,132.470657 93.227539,129.238281 97.334030,125.872612 
	C101.772186,122.842857 105.900291,119.946396 110.375946,116.993065 
	C115.249413,114.563637 119.732193,112.103691 124.313011,109.842369 
	C129.190918,107.434387 134.161606,105.214386 139.091797,102.912323 
	C140.002335,104.069244 140.912872,105.226181 141.479065,106.739494 
	C132.075790,112.362541 123.016861,117.629204 113.617180,122.965729 
	C107.188080,128.064240 101.099731,133.092880 94.705116,138.245728 
	C90.671135,142.378616 86.698090,146.190765 83.284988,150.451462 
	C79.897270,154.680481 77.073181,159.361023 74.001907,163.843536 
z"/>
<path fill="#4C9F34" opacity="1.000000" stroke="none" 
	d="
M125.938042,94.163460 
	C127.510498,94.185150 129.082947,94.206848 130.467285,94.624336 
	C121.179390,97.394623 112.079597,99.769119 102.738564,102.190125 
	C102.189934,102.389122 101.962120,102.620110 101.453415,102.948219 
	C99.719116,103.378105 98.345276,103.789398 96.753265,104.248589 
	C96.270874,104.466171 96.095978,104.702126 95.715866,105.029099 
	C94.934471,105.336975 94.447617,105.620094 93.587753,105.937180 
	C87.810379,108.650566 82.406021,111.330002 76.768005,114.097893 
	C76.219780,114.354027 76.021263,114.611275 75.963348,114.944687 
	C75.987907,114.931290 75.932724,114.921356 75.582275,114.963745 
	C71.490837,117.355400 67.749840,119.704674 63.779312,122.137993 
	C63.267727,122.412643 63.075954,122.670433 62.759136,123.081726 
	C62.261936,123.325638 62.064503,123.555687 61.608280,123.926544 
	C56.171638,128.311447 51.078232,132.627975 45.686668,137.095963 
	C39.936886,143.442337 34.485256,149.637283 29.033623,155.832214 
	C26.113882,154.792343 23.194139,153.752457 20.247421,152.074142 
	C22.504673,148.631378 24.788900,145.827072 27.369598,142.867188 
	C32.132420,138.481140 36.598770,134.250641 41.344273,129.900787 
	C42.413746,129.179489 43.204071,128.577515 44.209618,127.887764 
	C44.705284,127.617813 44.858349,127.360023 45.094986,126.750946 
	C47.880352,124.669304 50.454777,122.863327 53.374428,120.995697 
	C59.153229,117.643372 64.586800,114.352707 70.378799,111.008759 
	C78.724373,107.817482 86.545494,104.121689 94.740669,101.682693 
	C104.978897,98.635658 115.524910,96.622795 125.938042,94.163460 
z"/>
<path fill="#63B7D8" opacity="1.000000" stroke="none" 
	d="
M116.476158,85.885834 
	C116.073303,71.377899 108.197037,61.458359 96.177643,55.481205 
	C83.761757,49.306881 70.852745,50.480145 59.549187,59.098740 
	C45.645504,69.699844 42.118526,83.795929 47.046600,100.702820 
	C45.958214,101.749321 44.841187,102.381599 43.236206,102.704887 
	C33.798531,80.319000 46.350342,53.865398 71.985649,47.870823 
	C96.060898,42.241051 121.999763,62.359436 121.044182,85.821724 
	C119.659470,85.858078 118.274765,85.894440 116.476158,85.885834 
z"/>
<path fill="#4D9F34" opacity="1.000000" stroke="none" 
	d="
M144.096970,111.910469 
	C145.065399,113.360580 146.033829,114.810699 146.748154,116.774078 
	C141.664246,120.864662 136.834442,124.441978 131.775665,128.113464 
	C131.264191,128.403961 131.071228,128.666199 130.708557,129.105194 
	C129.946411,129.762985 129.443527,130.309921 128.606659,130.936371 
	C123.757103,135.614594 119.241508,140.213303 114.400116,144.895279 
	C109.389297,150.931274 104.704269,156.884018 100.019226,162.836761 
	C95.971222,163.215836 91.923210,163.594925 87.576729,163.604309 
	C90.514481,158.820862 93.750710,154.407089 97.286255,149.843170 
	C100.123611,146.899216 102.601517,144.047699 105.214943,141.326309 
	C108.481598,137.924713 111.859726,134.630157 115.525528,131.183609 
	C118.226799,129.337891 120.531784,127.507645 122.969215,125.875130 
	C129.983124,121.177444 137.050568,116.559647 144.096970,111.910469 
z"/>
<path fill="#4C9F34" opacity="1.000000" stroke="none" 
	d="
M1.948730,142.503204 
	C6.656480,138.213074 11.393365,134.277496 16.127996,130.339233 
	C18.010347,128.773499 19.887693,127.201729 22.219414,125.297012 
	C23.111084,124.625923 23.550653,124.290535 24.212143,123.873680 
	C24.723759,123.612968 24.884958,123.353798 25.122887,122.736931 
	C29.907267,119.648308 34.486420,116.837448 39.419250,113.977753 
	C45.852871,110.955475 51.932816,107.982033 58.264694,104.978401 
	C58.683289,104.919220 58.849945,104.890236 59.257812,104.813148 
	C59.804558,104.608047 60.028805,104.373337 60.512199,104.045532 
	C61.907688,103.652969 62.962738,103.275780 64.314301,102.907555 
	C65.095459,102.620369 65.580093,102.324219 66.406052,101.869446 
	C77.493195,99.431541 88.239006,97.152252 99.313141,94.912811 
	C99.636826,95.308357 99.720131,95.946899 99.615059,95.979568 
	C89.755287,99.045044 79.881142,102.064285 69.648941,105.102379 
	C63.522202,108.066154 57.754456,111.014107 51.634453,114.012222 
	C46.844463,117.007423 42.406727,119.952446 37.625229,122.961029 
	C32.848991,126.662560 28.416512,130.300537 23.682600,134.088730 
	C18.947048,138.766190 14.512930,143.293427 10.078810,147.820663 
	C7.378193,146.166016 4.677577,144.511353 1.948730,142.503204 
z"/>
<path fill="#C4DDE2" opacity="1.000000" stroke="none" 
	d="
M53.252617,98.802887 
	C49.884502,88.863174 50.474937,79.400673 56.652782,70.528435 
	C63.585163,60.572582 76.904289,55.799450 89.141449,59.194458 
	C100.150002,62.248608 109.176659,73.424828 110.055710,85.459610 
	C108.618095,85.884224 107.155754,85.907761 105.267509,85.516640 
	C103.781639,79.159096 101.076927,74.120499 96.370804,70.302246 
	C88.066307,63.564484 76.197403,62.835873 67.475266,68.418900 
	C58.060268,74.445427 54.373550,84.721436 57.306564,96.762169 
	C56.069443,97.418129 54.832325,98.074089 53.252617,98.802887 
z"/>
<path fill="#3AAED4" opacity="1.000000" stroke="none" 
	d="
M121.439133,85.881866 
	C121.999763,62.359436 96.060898,42.241051 71.985649,47.870823 
	C46.350342,53.865398 33.798531,80.319000 42.905525,102.745903 
	C41.952148,103.739204 40.841503,104.382492 39.237137,104.701431 
	C37.817707,95.875320 36.891991,87.373566 35.966278,78.871803 
	C40.400558,71.014977 44.834843,63.158157 49.930397,55.113457 
	C56.539223,51.859783 62.253963,48.160114 68.486748,45.870911 
	C78.859070,42.061321 89.292595,43.194031 99.176636,48.116245 
	C103.279762,50.159584 107.151939,52.666676 111.129143,54.962872 
	C114.211884,59.912098 117.317993,64.846992 120.366211,69.817398 
	C121.639931,71.894333 122.790627,74.046738 124.005760,76.953720 
	C124.348549,80.441330 124.682831,83.140053 125.017105,85.838776 
	C123.956100,85.873184 122.895088,85.907593 121.439133,85.881866 
z"/>
<path fill="#4D9F34" opacity="1.000000" stroke="none" 
	d="
M130.044495,156.070221 
	C125.334541,157.385468 120.624588,158.700699 115.599121,159.738342 
	C115.913803,158.073883 116.543999,156.687027 117.495949,155.183380 
	C122.286072,149.808945 126.754433,144.551270 131.558701,139.202942 
	C138.290146,134.058914 144.685684,129.005539 151.081223,123.952164 
	C152.396545,126.010544 153.711853,128.068924 154.697617,130.525909 
	C144.430771,137.536789 136.690247,146.274033 130.044495,156.070221 
z"/>
<path fill="#E3AC2E" opacity="1.000000" stroke="none" 
	d="
M95.010773,86.744781 
	C85.578224,88.998169 76.145676,91.251549 66.352203,93.142944 
	C66.000298,91.291855 65.900017,89.792656 66.036606,88.315353 
	C66.761658,80.473114 73.025513,74.981987 81.149597,75.000702 
	C88.924438,75.018608 94.357918,79.622208 95.010773,86.744781 
z"/>
<path fill="#0B7E35" opacity="1.000000" stroke="none" 
	d="
M130.439636,156.039459 
	C136.690247,146.274033 144.430771,137.536789 154.724579,130.875320 
	C156.674515,133.594711 158.769424,136.215103 159.649582,139.194382 
	C160.089188,140.682419 158.799820,143.871094 157.452972,144.503998 
	C148.708984,148.612854 139.734055,152.230301 130.439636,156.039459 
z"/>
<path fill="#13A7D0" opacity="1.000000" stroke="none" 
	d="
M53.875175,47.969265 
	C55.673042,44.740543 57.470905,41.511826 59.995579,38.132629 
	C68.245407,36.987976 75.760811,35.299198 83.293831,35.216557 
	C89.463837,35.148869 95.654816,36.994202 101.836502,37.991486 
	C103.472206,40.761909 105.107918,43.532333 106.422150,46.643082 
	C104.121811,46.184837 102.152779,45.360844 100.162384,44.592129 
	C91.962257,41.425144 83.635681,38.423317 74.732704,40.951595 
	C67.684319,42.953197 60.820789,45.605762 53.875175,47.969265 
z"/>
<path fill="#E2A227" opacity="1.000000" stroke="none" 
	d="
M95.424385,86.804199 
	C94.357918,79.622208 88.924438,75.018608 81.149597,75.000702 
	C73.025513,74.981987 66.761658,80.473114 66.036606,88.315353 
	C65.900017,89.792656 66.000298,91.291855 65.990295,93.194611 
	C64.890854,94.000809 63.792389,94.393364 62.332367,94.365067 
	C60.248337,88.080917 61.997173,82.963509 65.437332,78.261597 
	C70.211517,71.736382 78.848526,68.510536 85.978142,70.508904 
	C93.489166,72.614182 99.419594,79.104385 100.030823,86.076279 
	C100.002312,86.233345 99.984322,86.552101 99.984322,86.552101 
	C98.602211,86.655945 97.220108,86.759781 95.424385,86.804199 
z"/>
<path fill="#046B31" opacity="1.000000" stroke="none" 
	d="
M144.054749,111.562103 
	C137.050568,116.559647 129.983124,121.177444 122.969215,125.875130 
	C120.531784,127.507645 118.226799,129.337891 115.346458,130.837311 
	C114.540375,128.029831 114.249153,125.462845 113.957932,122.895859 
	C123.016861,117.629204 132.075790,112.362541 141.485641,107.066483 
	C142.561874,108.429306 143.287201,109.821526 144.054749,111.562103 
z"/>
<path fill="#027D36" opacity="1.000000" stroke="none" 
	d="
M96.986938,149.993332 
	C93.750710,154.407089 90.514481,158.820862 87.134018,163.533539 
	C82.967278,163.882019 78.944756,163.931549 74.462074,163.912308 
	C77.073181,159.361023 79.897270,154.680481 83.284988,150.451462 
	C86.698090,146.190765 90.671135,142.378616 94.701485,138.655075 
	C94.713913,140.682236 93.921402,142.529770 94.259552,144.139816 
	C94.690437,146.191437 96.035782,148.050980 96.986938,149.993332 
z"/>
<path fill="#08612D" opacity="1.000000" stroke="none" 
	d="
M70.007935,105.086555 
	C79.881142,102.064285 89.755287,99.045044 99.615059,95.979568 
	C99.720131,95.946899 99.636826,95.308357 99.318283,94.629761 
	C98.995583,93.927444 98.996071,93.548012 98.996567,93.168579 
	C107.690094,93.452888 116.383621,93.737190 125.507599,94.092476 
	C115.524910,96.622795 104.978897,98.635658 94.740669,101.682693 
	C86.545494,104.121689 78.724373,107.817482 70.371994,110.578201 
	C70.007149,108.496124 70.007538,106.791344 70.007935,105.086555 
z"/>
<path fill="#21AAD2" opacity="1.000000" stroke="none" 
	d="
M53.572742,48.130920 
	C60.820789,45.605762 67.684319,42.953197 74.732704,40.951595 
	C83.635681,38.423317 91.962257,41.425144 100.162384,44.592129 
	C102.152779,45.360844 104.121811,46.184837 106.468948,46.987091 
	C108.222473,49.411762 109.607727,51.832748 111.061066,54.608303 
	C107.151939,52.666676 103.279762,50.159584 99.176636,48.116245 
	C89.292595,43.194031 78.859070,42.061321 68.486748,45.870911 
	C62.253963,48.160114 56.539223,51.859783 50.232529,54.944595 
	C51.005699,52.739937 52.138004,50.516258 53.572742,48.130920 
z"/>
<path fill="#047133" opacity="1.000000" stroke="none" 
	d="
M151.041977,123.595131 
	C144.685684,129.005539 138.290146,134.058914 131.318359,138.862274 
	C130.141632,136.027130 129.541138,133.442001 128.940628,130.856873 
	C129.443527,130.309921 129.946411,129.762985 130.934143,129.005020 
	C131.700790,128.601242 131.896011,128.343002 132.004639,128.019287 
	C136.834442,124.441978 141.664246,120.864662 146.794907,117.117851 
	C148.398087,119.044937 149.700409,121.141518 151.041977,123.595131 
z"/>
<path fill="#027D36" opacity="1.000000" stroke="none" 
	d="
M70.942993,150.982849 
	C68.294571,154.691940 65.646141,158.401031 62.930511,162.449951 
	C59.011375,162.452118 55.159447,162.114456 51.072151,161.422302 
	C56.358471,154.141693 61.880154,147.215591 67.701920,140.595245 
	C68.001587,142.699738 67.618393,144.611465 68.106842,146.265869 
	C68.609642,147.968872 69.962234,149.420959 70.942993,150.982849 
z"/>
<path fill="#027C36" opacity="1.000000" stroke="none" 
	d="
M29.420761,155.911972 
	C34.485256,149.637283 39.936886,143.442337 45.736198,137.493393 
	C48.182762,140.108215 44.871120,145.015701 49.952770,145.985016 
	C46.722477,150.066055 43.492180,154.147095 40.110626,158.523560 
	C36.575542,157.876572 33.191723,156.934158 29.420761,155.911972 
z"/>
<path fill="#E0882B" opacity="1.000000" stroke="none" 
	d="
M57.607819,96.737099 
	C54.373550,84.721436 58.060268,74.445427 67.475266,68.418900 
	C76.197403,62.835873 88.066307,63.564484 96.370804,70.302246 
	C101.076927,74.120499 103.781639,79.159096 104.831879,85.470764 
	C104.415558,85.880997 104.008987,85.922447 103.300964,85.529915 
	C101.984558,82.703621 101.305038,80.088997 99.893700,77.959373 
	C95.065201,70.673462 88.150436,66.430984 79.372169,67.242798 
	C69.522316,68.153717 61.051910,75.722176 59.440956,84.685532 
	C58.851254,87.966637 56.865055,92.126831 60.965698,94.994736 
	C59.946823,95.567169 58.927948,96.139595 57.607819,96.737099 
z"/>
<path fill="#08A2CE" opacity="1.000000" stroke="none" 
	d="
M101.801582,37.656540 
	C95.654816,36.994202 89.463837,35.148869 83.293831,35.216557 
	C75.760811,35.299198 68.245407,36.987976 60.301346,37.971321 
	C60.873863,36.181244 61.867428,34.401993 63.423847,32.308853 
	C70.664955,31.330250 77.336365,30.252422 84.023781,30.141815 
	C88.710022,30.064304 93.418106,31.306841 98.116425,31.959850 
	C99.333176,33.747097 100.549919,35.534344 101.801582,37.656540 
z"/>
<path fill="#04622E" opacity="1.000000" stroke="none" 
	d="
M139.053345,102.580872 
	C134.161606,105.214386 129.190918,107.434387 124.313011,109.842369 
	C119.732193,112.103691 115.249413,114.563637 110.162178,116.692505 
	C109.069672,114.637543 108.538475,112.826286 108.007286,111.015015 
	C117.397324,107.140747 126.787361,103.266472 136.500061,99.244583 
	C137.553436,100.147774 138.284180,101.198593 139.053345,102.580872 
z"/>
<path fill="#17A8D1" opacity="1.000000" stroke="none" 
	d="
M35.661705,79.057083 
	C36.891991,87.373566 37.817707,95.875320 38.903847,104.743431 
	C36.960430,106.411949 34.856586,107.714119 32.351059,108.686928 
	C30.262665,103.887337 28.575953,99.417107 26.889240,94.946877 
	C29.711874,89.712044 32.534508,84.477203 35.661705,79.057083 
z"/>
<path fill="#035B2C" opacity="1.000000" stroke="none" 
	d="
M102.979813,102.143608 
	C112.079597,99.769119 121.179390,97.394623 130.682434,94.954666 
	C132.696304,95.642029 134.306900,96.394867 135.916824,97.514114 
	C123.460304,99.274696 111.860222,103.407845 100.036499,108.956955 
	C98.933502,109.317200 98.475281,109.609451 98.017059,109.901703 
	C98.017059,109.901703 97.562386,109.997185 96.934875,109.995422 
	C95.525169,108.630180 94.742958,107.266693 93.960754,105.903214 
	C94.447617,105.620094 94.934471,105.336975 95.915634,104.945984 
	C96.664902,104.685364 96.852066,104.472885 96.971428,104.200691 
	C98.345276,103.789398 99.719116,103.378105 101.696854,102.896851 
	C102.614037,102.685448 102.840393,102.457687 102.979813,102.143608 
z"/>
<path fill="#E19423" opacity="1.000000" stroke="none" 
	d="
M61.231327,94.952820 
	C56.865055,92.126831 58.851254,87.966637 59.440956,84.685532 
	C61.051910,75.722176 69.522316,68.153717 79.372169,67.242798 
	C88.150436,66.430984 95.065201,70.673462 99.893700,77.959373 
	C101.305038,80.088997 101.984558,82.703621 102.999969,85.473297 
	C102.838768,85.895195 102.677101,85.939728 101.939072,85.984177 
	C100.928253,85.962463 100.493790,85.940834 100.059334,85.919212 
	C99.419594,79.104385 93.489166,72.614182 85.978142,70.508904 
	C78.848526,68.510536 70.211517,71.736382 65.437332,78.261597 
	C61.997173,82.963509 60.248337,88.080917 61.982498,94.325058 
	C61.828445,94.774223 61.662704,94.842567 61.231327,94.952820 
z"/>
<path fill="#0091C7" opacity="1.000000" stroke="none" 
	d="
M90.114090,17.959072 
	C91.664696,20.408949 93.215302,22.858828 94.376167,25.653378 
	C84.950867,25.986435 75.915306,25.974819 66.879738,25.963203 
	C68.206261,23.519379 69.532776,21.075556 71.443619,18.314795 
	C78.056656,17.984930 84.085373,17.972000 90.114090,17.959072 
z"/>
<path fill="#029BCB" opacity="1.000000" stroke="none" 
	d="
M66.570465,26.097042 
	C75.915306,25.974819 84.950867,25.986435 94.410095,25.997066 
	C95.889549,27.752003 96.945351,29.507927 98.058792,31.611851 
	C93.418106,31.306841 88.710022,30.064304 84.023781,30.141815 
	C77.336365,30.252422 70.664955,31.330250 63.576672,31.994883 
	C64.198158,30.073494 65.229675,28.152187 66.570465,26.097042 
z"/>
<path fill="#027D36" opacity="1.000000" stroke="none" 
	d="
M117.174187,155.300156 
	C116.543999,156.687027 115.913803,158.073883 115.190125,159.777100 
	C110.350937,161.055710 105.605232,162.017960 100.439377,162.908478 
	C104.704269,156.884018 109.389297,150.931274 114.736076,145.168732 
	C115.989944,148.672668 116.582069,151.986404 117.174187,155.300156 
z"/>
<path fill="#027935" opacity="1.000000" stroke="none" 
	d="
M10.398428,147.993042 
	C14.512930,143.293427 18.947048,138.766190 23.688175,134.522430 
	C24.395205,137.779327 22.713989,141.532364 27.073128,143.022751 
	C24.788900,145.827072 22.504673,148.631378 20.080624,151.744324 
	C16.866549,150.757111 13.792296,149.461273 10.398428,147.993042 
z"/>
<path fill="#04552A" opacity="1.000000" stroke="none" 
	d="
M98.574280,93.095963 
	C98.996071,93.548012 98.995583,93.927444 98.989960,94.589920 
	C88.239006,97.152252 77.493195,99.431541 66.108170,101.873665 
	C64.985237,102.323868 64.501511,102.611229 64.017784,102.898590 
	C62.962738,103.275780 61.907688,103.652969 60.270508,104.101410 
	C59.377853,104.317780 59.153931,104.547318 59.016602,104.861259 
	C58.849945,104.890236 58.683289,104.919220 58.097519,104.724510 
	C57.120468,103.721031 56.562519,102.941261 56.004570,102.161484 
	C65.267426,99.771507 74.490059,97.206520 83.810028,95.065109 
	C88.499489,93.987633 93.365700,93.679413 98.574280,93.095963 
z"/>
<path fill="#06A0CD" opacity="1.000000" stroke="none" 
	d="
M26.586674,95.115677 
	C28.575953,99.417107 30.262665,103.887337 31.997913,108.739716 
	C30.296255,110.414589 28.546061,111.707314 26.132549,112.867874 
	C23.941692,110.141205 22.414150,107.546722 20.886608,104.952240 
	C22.685774,101.729652 24.484941,98.507057 26.586674,95.115677 
z"/>
<path fill="#04672F" opacity="1.000000" stroke="none" 
	d="
M39.065575,114.026596 
	C34.486420,116.837448 29.907267,119.648308 24.921825,122.841690 
	C24.266331,123.414589 24.091227,123.658234 23.990223,123.955147 
	C23.550653,124.290535 23.111084,124.625923 22.388422,125.003281 
	C21.066082,123.908409 20.026834,122.771561 18.971893,121.258774 
	C18.956202,120.882835 19.023928,120.457550 19.022417,120.231323 
	C19.020906,120.005089 19.016317,120.076584 19.349075,119.957809 
	C20.637112,119.219383 21.592388,118.599716 22.572861,117.986237 
	C22.598057,117.992424 22.585924,117.985855 22.585926,117.985855 
	C26.797689,115.654266 31.009455,113.322678 35.631287,111.286743 
	C37.049427,112.397133 38.057499,113.211861 39.065575,114.026596 
z"/>
<path fill="#04622E" opacity="1.000000" stroke="none" 
	d="
M39.419250,113.977753 
	C38.057499,113.211861 37.049427,112.397133 36.000046,111.230148 
	C42.386528,107.923729 48.814312,104.969582 55.623337,102.088455 
	C56.562519,102.941261 57.120468,103.721031 57.845589,104.754700 
	C51.932816,107.982033 45.852871,110.955475 39.419250,113.977753 
z"/>
<path fill="#0091C7" opacity="1.000000" stroke="none" 
	d="
M22.266945,117.620514 
	C22.585924,117.985855 22.598057,117.992424 22.232410,117.606781 
	C20.916613,118.172951 19.966465,119.124763 19.016315,120.076584 
	C19.016317,120.076584 19.020906,120.005089 19.054182,120.018356 
	C17.928928,119.936920 16.770401,119.842232 15.456736,119.734863 
	C13.154214,113.637100 19.069977,110.223518 20.577312,105.121368 
	C22.414150,107.546722 23.941692,110.141205 25.787663,112.892342 
	C24.720049,114.451050 23.334005,115.853111 22.266945,117.620514 
z"/>
<path fill="#0085BD" opacity="1.000000" stroke="none" 
	d="
M90.058449,17.619240 
	C84.085373,17.972000 78.056656,17.984930 71.597626,17.996429 
	C72.072578,16.531145 72.977829,15.067290 74.478310,13.300730 
	C79.087326,12.985250 83.101112,12.972477 87.114914,12.959702 
	C88.077545,14.399603 89.040176,15.839505 90.058449,17.619240 
z"/>
<path fill="#0077AF" opacity="1.000000" stroke="none" 
	d="
M87.056152,12.590263 
	C83.101112,12.972477 79.087326,12.985250 74.620224,12.996000 
	C75.429283,9.273394 77.032990,5.470932 81.879265,7.167491 
	C83.924362,7.883429 85.311287,10.479418 87.056152,12.590263 
z"/>
<path fill="#21AAD2" opacity="1.000000" stroke="none" 
	d="
M125.403412,85.901917 
	C124.682831,83.140053 124.348549,80.441330 124.024818,77.310684 
	C125.735573,79.587547 127.435768,82.296333 129.458511,85.519005 
	C127.864632,85.712791 126.827179,85.838928 125.403412,85.901917 
z"/>
<path fill="#E3AC2E" opacity="1.000000" stroke="none" 
	d="
M100.030823,86.076279 
	C100.493790,85.940834 100.928253,85.962463 101.688354,86.004280 
	C101.522385,86.263893 101.030769,86.503311 100.261742,86.647415 
	C99.984322,86.552101 100.002312,86.233345 100.030823,86.076279 
z"/>
<path fill="#037434" opacity="1.000000" stroke="none" 
	d="
M50.261852,145.827133 
	C44.871120,145.015701 48.182762,140.108215 46.034351,137.341949 
	C51.078232,132.627975 56.171638,128.311447 61.624779,124.367653 
	C62.380264,127.264275 62.776016,129.788147 63.171768,132.312012 
	C62.065929,133.729248 61.077404,135.260681 59.830944,136.541031 
	C56.808193,139.645981 53.665379,142.634079 50.261852,145.827133 
z"/>
<path fill="#027534" opacity="1.000000" stroke="none" 
	d="
M71.223663,150.798981 
	C69.962234,149.420959 68.609642,147.968872 68.106842,146.265869 
	C67.618393,144.611465 68.001587,142.699738 68.002838,140.451614 
	C72.429657,136.004379 76.855644,132.006531 81.634399,128.377625 
	C82.588242,131.340240 80.277878,135.154129 85.030479,136.007812 
	C80.521767,140.876907 76.013054,145.746002 71.223663,150.798981 
z"/>
<path fill="#04672F" opacity="1.000000" stroke="none" 
	d="
M93.587746,105.937180 
	C94.742958,107.266693 95.525169,108.630180 96.703835,110.019493 
	C91.649849,113.335487 86.199402,116.625648 80.087318,119.983498 
	C78.936615,120.402634 78.447548,120.754082 77.958481,121.105530 
	C77.958481,121.105522 77.595261,121.249832 77.214645,120.895981 
	C76.533592,118.668541 76.233154,116.794945 75.932724,114.921356 
	C75.932724,114.921356 75.987907,114.931290 76.195747,114.856537 
	C76.694786,114.595459 76.894150,114.338013 77.001663,114.009430 
	C82.406021,111.330002 87.810379,108.650566 93.587746,105.937180 
z"/>
<path fill="#046C31" opacity="1.000000" stroke="none" 
	d="
M75.582275,114.963745 
	C76.233154,116.794945 76.533592,118.668541 77.021164,120.923477 
	C72.749878,124.894272 68.291443,128.483734 63.502392,132.192596 
	C62.776016,129.788147 62.380264,127.264275 61.968010,124.299301 
	C62.064503,123.555687 62.261936,123.325638 62.980774,122.984642 
	C63.694851,122.615479 63.891880,122.366386 64.008835,122.053947 
	C67.749840,119.704674 71.490837,117.355400 75.582275,114.963745 
z"/>
<path fill="#047133" opacity="1.000000" stroke="none" 
	d="
M85.332581,135.855423 
	C80.277878,135.154129 82.588242,131.340240 81.973572,128.306610 
	C85.761299,124.996017 89.562622,122.125397 93.682907,119.545822 
	C94.284027,122.248474 92.899765,125.476448 97.023972,126.005913 
	C93.227539,129.238281 89.431114,132.470657 85.332581,135.855423 
z"/>
<path fill="#046B31" opacity="1.000000" stroke="none" 
	d="
M97.334030,125.872612 
	C92.899765,125.476448 94.284027,122.248474 94.003677,119.425880 
	C94.457458,118.692314 94.909416,118.369728 95.880722,117.923019 
	C96.687996,117.612389 96.890701,117.357986 97.008194,117.035698 
	C97.008194,117.035698 97.002983,116.995125 97.302734,116.983398 
	C98.058258,116.681000 98.514030,116.390327 98.969803,116.099648 
	C101.747627,114.427605 104.525452,112.755554 107.655289,111.049263 
	C108.538475,112.826286 109.069672,114.637543 109.814621,116.749374 
	C105.900291,119.946396 101.772186,122.842857 97.334030,125.872612 
z"/>
<path fill="#046C31" opacity="1.000000" stroke="none" 
	d="
M78.270386,121.074615 
	C78.447548,120.754082 78.936615,120.402634 79.743240,120.037048 
	C79.567970,120.363174 79.075127,120.703438 78.270386,121.074615 
z"/>
<path fill="#047133" opacity="1.000000" stroke="none" 
	d="
M98.681107,116.091919 
	C98.514030,116.390327 98.058258,116.681000 97.319626,116.994965 
	C97.488640,116.706909 97.940529,116.395546 98.681107,116.091919 
z"/>
<path fill="#04672F" opacity="1.000000" stroke="none" 
	d="
M98.307175,109.906937 
	C98.475281,109.609451 98.933502,109.317200 99.676117,109.003479 
	C99.506104,109.292068 99.051697,109.602127 98.307175,109.906937 
z"/>
<path fill="#047133" opacity="1.000000" stroke="none" 
	d="
M96.774155,117.121445 
	C96.890701,117.357986 96.687996,117.612389 96.169891,117.892288 
	C96.049057,117.656151 96.249199,117.396652 96.774155,117.121445 
z"/>
<path fill="#027534" opacity="1.000000" stroke="none" 
	d="
M97.286255,149.843170 
	C96.035782,148.050980 94.690437,146.191437 94.259552,144.139816 
	C93.921402,142.529770 94.713913,140.682236 95.007759,138.530869 
	C101.099731,133.092880 107.188080,128.064240 113.617180,122.965729 
	C114.249153,125.462845 114.540375,128.029831 115.010666,130.943115 
	C111.859726,134.630157 108.481598,137.924713 105.214943,141.326309 
	C102.601517,144.047699 100.123611,146.899216 97.286255,149.843170 
z"/>
<path fill="#037434" opacity="1.000000" stroke="none" 
	d="
M27.369598,142.867188 
	C22.713989,141.532364 24.395205,137.779327 23.989607,134.372208 
	C28.416512,130.300537 32.848991,126.662560 37.635735,123.384636 
	C38.303402,126.185226 36.862995,129.485168 41.065125,130.020142 
	C36.598770,134.250641 32.132420,138.481140 27.369598,142.867188 
z"/>
<path fill="#04672F" opacity="1.000000" stroke="none" 
	d="
M69.648941,105.102379 
	C70.007538,106.791344 70.007149,108.496124 70.013565,110.631477 
	C64.586800,114.352707 59.153229,117.643372 53.214504,120.629608 
	C52.468472,118.204147 52.227592,116.083099 51.986713,113.962059 
	C57.754456,111.014107 63.522202,108.066154 69.648941,105.102379 
z"/>
<path fill="#046C31" opacity="1.000000" stroke="none" 
	d="
M51.634453,114.012222 
	C52.227592,116.083099 52.468472,118.204147 52.869278,120.691269 
	C50.454777,122.863327 47.880352,124.669304 44.899479,126.858215 
	C44.252430,127.435425 44.086224,127.680229 43.994400,127.975555 
	C43.204071,128.577515 42.413746,129.179489 41.344276,129.900787 
	C36.862995,129.485168 38.303402,126.185226 37.979492,123.321075 
	C42.406727,119.952446 46.844463,117.007423 51.634453,114.012222 
z"/>
<path fill="#037434" opacity="1.000000" stroke="none" 
	d="
M63.779312,122.137993 
	C63.891880,122.366386 63.694851,122.615479 63.196102,122.898315 
	C63.075954,122.670433 63.267727,122.412643 63.779312,122.137993 
z"/>
<path fill="#04672F" opacity="1.000000" stroke="none" 
	d="
M102.738564,102.190125 
	C102.840393,102.457687 102.614037,102.685448 102.057312,102.878265 
	C101.962120,102.620110 102.189934,102.389122 102.738564,102.190125 
z"/>
<path fill="#037434" opacity="1.000000" stroke="none" 
	d="
M44.209621,127.887772 
	C44.086224,127.680229 44.252430,127.435425 44.688530,127.133881 
	C44.858349,127.360023 44.705284,127.617813 44.209621,127.887772 
z"/>
<path fill="#04672F" opacity="1.000000" stroke="none" 
	d="
M96.753265,104.248589 
	C96.852066,104.472885 96.664902,104.685364 96.210175,104.921242 
	C96.095978,104.702126 96.270874,104.466171 96.753265,104.248589 
z"/>
<path fill="#046C31" opacity="1.000000" stroke="none" 
	d="
M76.768005,114.097893 
	C76.894150,114.338013 76.694786,114.595459 76.171188,114.869934 
	C76.021263,114.611275 76.219780,114.354027 76.768005,114.097893 
z"/>
<path fill="#027935" opacity="1.000000" stroke="none" 
	d="
M117.495949,155.183380 
	C116.582069,151.986404 115.989944,148.672668 115.061874,145.085480 
	C119.241508,140.213303 123.757103,135.614594 128.606659,130.936371 
	C129.541138,133.442001 130.141632,136.027130 130.982452,138.952927 
	C126.754433,144.551270 122.286072,149.808945 117.495949,155.183380 
z"/>
<path fill="#027935" opacity="1.000000" stroke="none" 
	d="
M131.775665,128.113464 
	C131.896011,128.343002 131.700790,128.601242 131.193390,128.894180 
	C131.071228,128.666199 131.264191,128.403961 131.775665,128.113464 
z"/>
<path fill="#04622E" opacity="1.000000" stroke="none" 
	d="
M64.314301,102.907555 
	C64.501511,102.611229 64.985237,102.323868 65.766846,102.032280 
	C65.580093,102.324219 65.095459,102.620369 64.314301,102.907555 
z"/>
<path fill="#047133" opacity="1.000000" stroke="none" 
	d="
M24.212143,123.873680 
	C24.091227,123.658234 24.266331,123.414589 24.716599,123.119461 
	C24.884958,123.353798 24.723759,123.612968 24.212143,123.873680 
z"/>
<path fill="#04622E" opacity="1.000000" stroke="none" 
	d="
M59.257812,104.813148 
	C59.153931,104.547318 59.377853,104.317780 59.930065,104.116783 
	C60.028805,104.373337 59.804558,104.608047 59.257812,104.813148 
z"/>
<path fill="#FFFFFF" opacity="1.000000" stroke="none" 
	d="
M19.349075,119.957809 
	C19.966465,119.124763 20.916613,118.172951 22.207214,117.600601 
	C21.592388,118.599716 20.637112,119.219383 19.349075,119.957809 
z"/>
</svg>